<mxfile host="65bd71144e" scale="1" border="0">
    <diagram id="rlEKIhMvE3VCvVIRUdtE" name="Page-1">
        <mxGraphModel dx="1391" dy="636" grid="0" gridSize="10" guides="1" tooltips="1" connect="1" arrows="1" fold="1" page="0" pageScale="1" pageWidth="850" pageHeight="1100" background="#FFFFFF" math="0" shadow="0">
            <root>
                <mxCell id="0"/>
                <mxCell id="1" parent="0"/>
                <mxCell id="7" value="calc.js" style="swimlane;startSize=20;fillColor=#0050ef;strokeColor=#001DBC;fontColor=#ffffff;rounded=0;" parent="1" vertex="1">
                    <mxGeometry x="450" y="40" width="230" height="250" as="geometry"/>
                </mxCell>
                <mxCell id="4" value="add()" style="rounded=0;whiteSpace=wrap;html=1;strokeColor=#00994D;fillColor=#f5f5f5;fontColor=#333333;" parent="7" vertex="1">
                    <mxGeometry x="50" y="47.5" width="120" height="60" as="geometry"/>
                </mxCell>
                <mxCell id="8" style="edgeStyle=none;html=1;fillColor=#d80073;strokeColor=#A50040;jumpStyle=none;strokeWidth=3;rounded=0;" parent="7" source="5" target="4" edge="1">
                    <mxGeometry relative="1" as="geometry">
                        <Array as="points">
                            <mxPoint x="200" y="175"/>
                            <mxPoint x="200" y="75"/>
                        </Array>
                    </mxGeometry>
                </mxCell>
                <mxCell id="5" value="adderMult()" style="rounded=0;whiteSpace=wrap;html=1;fillColor=#f5f5f5;fontColor=#333333;strokeColor=#666666;" parent="7" vertex="1">
                    <mxGeometry x="50" y="145" width="120" height="60" as="geometry"/>
                </mxCell>
                <mxCell id="14" value="calc.test.js" style="swimlane;startSize=20;fillColor=#f0a30a;strokeColor=#BD7000;fontColor=#000000;rounded=0;" parent="1" vertex="1">
                    <mxGeometry x="170" y="40" width="230" height="250" as="geometry"/>
                </mxCell>
                <mxCell id="17" value="test::adderMult()" style="rounded=0;whiteSpace=wrap;html=1;fillColor=#6d8764;fontColor=#ffffff;strokeColor=#3A5431;" parent="14" vertex="1">
                    <mxGeometry x="55" y="145" width="120" height="60" as="geometry"/>
                </mxCell>
                <mxCell id="28" value="mock=&amp;gt;add()" style="shape=hexagon;perimeter=hexagonPerimeter2;whiteSpace=wrap;html=1;fixedSize=1;rounded=0;fillColor=#f5f5f5;fontColor=#333333;strokeColor=#666666;" parent="14" vertex="1">
                    <mxGeometry x="55" y="60" width="120" height="35" as="geometry"/>
                </mxCell>
                <mxCell id="19" style="edgeStyle=none;html=1;rounded=0;fillColor=#f5f5f5;strokeColor=#666666;" parent="1" source="17" target="5" edge="1">
                    <mxGeometry relative="1" as="geometry"/>
                </mxCell>
                <mxCell id="29" style="edgeStyle=none;html=1;entryX=0;entryY=0.5;entryDx=0;entryDy=0;rounded=0;fillColor=#f5f5f5;strokeColor=#666666;" parent="1" source="28" target="4" edge="1">
                    <mxGeometry relative="1" as="geometry"/>
                </mxCell>
                <mxCell id="49" value="calc.test.js" style="swimlane;startSize=20;fillColor=#f0a30a;strokeColor=#BD7000;fontColor=#000000;rounded=0;" parent="1" vertex="1">
                    <mxGeometry x="306" y="430" width="230" height="250" as="geometry"/>
                </mxCell>
                <mxCell id="51" value="test::adderMult()" style="rounded=0;whiteSpace=wrap;html=1;fillColor=#6d8764;fontColor=#ffffff;strokeColor=#3A5431;" parent="49" vertex="1">
                    <mxGeometry x="55" y="145" width="120" height="60" as="geometry"/>
                </mxCell>
                <mxCell id="52" value="MOCK=&amp;gt;add()" style="shape=hexagon;perimeter=hexagonPerimeter2;whiteSpace=wrap;html=1;fixedSize=1;strokeColor=#00994D;rounded=0;fillColor=#f5f5f5;fontColor=#333333;" parent="49" vertex="1">
                    <mxGeometry x="55" y="60" width="120" height="35" as="geometry"/>
                </mxCell>
                <mxCell id="55" style="edgeStyle=none;html=1;rounded=0;fillColor=#f5f5f5;strokeColor=#666666;" parent="1" source="42" target="52" edge="1">
                    <mxGeometry relative="1" as="geometry">
                        <mxPoint x="425" y="585" as="sourcePoint"/>
                        <mxPoint x="425" y="535" as="targetPoint"/>
                    </mxGeometry>
                </mxCell>
                <mxCell id="62" style="edgeStyle=none;jumpStyle=none;html=1;fontColor=#9E9E9E;strokeWidth=1;rounded=0;fillColor=#f5f5f5;strokeColor=#666666;" parent="1" source="51" target="44" edge="1">
                    <mxGeometry relative="1" as="geometry"/>
                </mxCell>
                <mxCell id="63" style="edgeStyle=none;jumpStyle=none;html=1;fontColor=#9E9E9E;strokeColor=#ae4132;strokeWidth=2;dashed=1;fillColor=#fad9d5;rounded=0;" parent="1" source="42" target="46" edge="1">
                    <mxGeometry relative="1" as="geometry">
                        <Array as="points">
                            <mxPoint x="680" y="400"/>
                            <mxPoint x="160" y="400"/>
                        </Array>
                    </mxGeometry>
                </mxCell>
                <mxCell id="61" style="edgeStyle=none;jumpStyle=none;html=1;fontColor=#9E9E9E;strokeWidth=1;rounded=0;fillColor=#f5f5f5;strokeColor=#666666;dashed=1;" parent="1" source="52" target="46" edge="1">
                    <mxGeometry relative="1" as="geometry">
                        <Array as="points">
                            <mxPoint x="160" y="508"/>
                        </Array>
                    </mxGeometry>
                </mxCell>
                <mxCell id="45" value="add.js" style="swimlane;startSize=20;fillColor=#6a00ff;strokeColor=#3700CC;fontColor=#ffffff;rounded=0;" parent="1" vertex="1">
                    <mxGeometry x="40" y="430" width="230" height="250" as="geometry"/>
                </mxCell>
                <mxCell id="46" value="add()" style="rounded=0;whiteSpace=wrap;html=1;fillColor=#f5f5f5;fontColor=#333333;strokeColor=#666666;" parent="45" vertex="1">
                    <mxGeometry x="60" y="105" width="120" height="60" as="geometry"/>
                </mxCell>
                <mxCell id="41" value="calc.js" style="swimlane;startSize=20;fillColor=#0050ef;strokeColor=#001DBC;fontColor=#ffffff;rounded=0;" parent="1" vertex="1">
                    <mxGeometry x="570" y="430" width="230" height="250" as="geometry"/>
                </mxCell>
                <mxCell id="42" value="&lt;font color=&quot;#9e9e9e&quot;&gt;add()&lt;/font&gt;" style="rounded=0;whiteSpace=wrap;html=1;dashed=1;strokeColor=#666666;fillColor=none;fontColor=#333333;" parent="41" vertex="1">
                    <mxGeometry x="50" y="45" width="120" height="60" as="geometry"/>
                </mxCell>
                <mxCell id="43" style="edgeStyle=none;html=1;jumpStyle=none;strokeWidth=2;dashed=1;fillColor=#ffcc99;strokeColor=#7A4962;rounded=0;" parent="41" source="44" target="42" edge="1">
                    <mxGeometry relative="1" as="geometry">
                        <Array as="points">
                            <mxPoint x="200" y="175"/>
                            <mxPoint x="200" y="75"/>
                        </Array>
                    </mxGeometry>
                </mxCell>
                <mxCell id="44" value="adderMult()" style="rounded=0;whiteSpace=wrap;html=1;fillColor=#f5f5f5;fontColor=#333333;strokeColor=#666666;" parent="41" vertex="1">
                    <mxGeometry x="50" y="145" width="120" height="60" as="geometry"/>
                </mxCell>
                <mxCell id="81" value="calc.test.js" style="swimlane;startSize=20;fillColor=#f0a30a;strokeColor=#BD7000;fontColor=#000000;rounded=0;" vertex="1" parent="1">
                    <mxGeometry x="40" y="790" width="230" height="250" as="geometry">
                        <mxRectangle x="300" y="801.49" width="90" height="20" as="alternateBounds"/>
                    </mxGeometry>
                </mxCell>
                <mxCell id="82" value="test::adderMult()" style="rounded=0;whiteSpace=wrap;html=1;fillColor=#6d8764;fontColor=#ffffff;strokeColor=#3A5431;" vertex="1" parent="81">
                    <mxGeometry x="55" y="58.510000000000005" width="120" height="60" as="geometry"/>
                </mxCell>
                <mxCell id="83" value="MOCK=&amp;gt;add()" style="shape=hexagon;perimeter=hexagonPerimeter2;whiteSpace=wrap;html=1;fixedSize=1;rounded=0;fillColor=#f5f5f5;fontColor=#333333;strokeColor=#666666;" vertex="1" parent="81">
                    <mxGeometry x="55" y="178.51" width="120" height="35" as="geometry"/>
                </mxCell>
                <mxCell id="84" style="edgeStyle=none;jumpStyle=none;html=1;fontColor=#9E9E9E;strokeWidth=1;rounded=0;jumpSize=12;fillColor=#f5f5f5;strokeColor=#666666;" edge="1" parent="1" source="82" target="92">
                    <mxGeometry relative="1" as="geometry"/>
                </mxCell>
                <mxCell id="85" style="edgeStyle=none;jumpStyle=none;html=1;fontColor=#9E9E9E;strokeColor=#3333FF;strokeWidth=2;dashed=1;fillColor=#fad9d5;rounded=0;" edge="1" parent="1" source="90" target="88">
                    <mxGeometry relative="1" as="geometry">
                        <Array as="points">
                            <mxPoint x="410" y="760"/>
                            <mxPoint x="690" y="760"/>
                        </Array>
                    </mxGeometry>
                </mxCell>
                <mxCell id="86" style="edgeStyle=none;jumpStyle=none;html=1;fontColor=#9E9E9E;strokeWidth=1;rounded=0;fillColor=#f5f5f5;strokeColor=#666666;dashed=1;" edge="1" parent="1" source="83" target="88">
                    <mxGeometry relative="1" as="geometry">
                        <Array as="points">
                            <mxPoint x="155" y="1070"/>
                            <mxPoint x="690" y="1070"/>
                        </Array>
                    </mxGeometry>
                </mxCell>
                <mxCell id="87" value="add.js" style="swimlane;startSize=20;fillColor=#6a00ff;strokeColor=#3700CC;fontColor=#ffffff;rounded=0;" vertex="1" parent="1">
                    <mxGeometry x="570" y="790" width="230" height="250" as="geometry">
                        <mxRectangle x="40" y="801.49" width="70" height="20" as="alternateBounds"/>
                    </mxGeometry>
                </mxCell>
                <mxCell id="88" value="add()" style="rounded=0;whiteSpace=wrap;html=1;strokeColor=#00994D;fillColor=#f5f5f5;fontColor=#333333;strokeWidth=2;" vertex="1" parent="87">
                    <mxGeometry x="60" y="105" width="120" height="60" as="geometry"/>
                </mxCell>
                <mxCell id="89" value="calc.js" style="swimlane;startSize=20;fillColor=#0050ef;strokeColor=#001DBC;fontColor=#ffffff;rounded=0;" vertex="1" parent="1">
                    <mxGeometry x="306" y="790" width="230" height="250" as="geometry">
                        <mxRectangle x="570" y="801.49" width="70" height="20" as="alternateBounds"/>
                    </mxGeometry>
                </mxCell>
                <mxCell id="90" value="&lt;font color=&quot;#9e9e9e&quot;&gt;add()&lt;/font&gt;" style="rounded=0;whiteSpace=wrap;html=1;dashed=1;strokeColor=#666666;fillColor=none;fontColor=#333333;" vertex="1" parent="89">
                    <mxGeometry x="50" y="45" width="120" height="60" as="geometry"/>
                </mxCell>
                <mxCell id="91" style="edgeStyle=none;html=1;jumpStyle=none;strokeWidth=2;dashed=1;fillColor=#ffcc99;strokeColor=#7A4962;rounded=0;" edge="1" parent="89" source="92" target="90">
                    <mxGeometry relative="1" as="geometry">
                        <Array as="points">
                            <mxPoint x="200" y="175"/>
                            <mxPoint x="200" y="75"/>
                        </Array>
                    </mxGeometry>
                </mxCell>
                <mxCell id="92" value="adderMult()" style="rounded=0;whiteSpace=wrap;html=1;fillColor=#f5f5f5;fontColor=#333333;strokeColor=#666666;" vertex="1" parent="89">
                    <mxGeometry x="50" y="145" width="120" height="60" as="geometry"/>
                </mxCell>
                <mxCell id="93" style="edgeStyle=none;html=1;rounded=0;dashed=1;strokeColor=#FF3333;jumpStyle=arc;jumpSize=16;" edge="1" parent="1" source="90" target="83">
                    <mxGeometry relative="1" as="geometry">
                        <mxPoint x="425" y="945" as="sourcePoint"/>
                        <mxPoint x="425" y="895" as="targetPoint"/>
                    </mxGeometry>
                </mxCell>
            </root>
        </mxGraphModel>
    </diagram>
</mxfile>